:SAMPLES-PER-SECOND 30
:FULLY-SPECIFIED
:DEGREES
121
root  34.98400891 36.47153058 -14.73386269 12.20884609 14.06489944 5.296698093
lowerback  -8.851590157 3.423049927 3.745870352
upperback  -4.370709896 3.932260036 -4.830649853
thorax  1.006610036 1.71449995 -6.771780014
lowerneck  -15.12010002 -5.783199787 -2.334530115
upperneck  10.92150021 -8.562150002 7.403540134
head  6.223740101 -3.752779722 1.873200059
lclavicle  0 -4.497500157e-015 -2.743230041e-014
lhumerus  -42.60029984 28.43079948 67.4382019
lradius  -0.1046513021 -6.507048965e-006 25.26850128
lwrist  4.824992743e-007 -3.790274832e-007 -36.11539841
lhand  -4.411649449e-031 -36.8307991 -10.50790024
lfingers  90 7.125020027 -90
lthumb  94.74837634 -25.3493356 100.979858
rclavicle  0 -4.497500157e-015 -2.743230041e-014
rhumerus  65.80590057 -11.04740047 -58.09220123
rradius  -5.16745672e-007 2.214343908e-008 41.40250015
rwrist  1.380293725e-006 2.528095422e-007 -154.5529938
rhand  -1.771991582e-031 4.882160187 -5.443260193
rfingers  -90 -7.125020027 -90
rthumb  -83.87811176 -10.35982445 -59.18690354
rfemur  -14.6036787 9.954574585 14.44015694
rtibia  -3.598671675 2.146087646 24.76347351
rfoot  -3.142143726 -13.60730362 -45.68648529
rtoes  4.097596414 19.59258864 -102.059198
lfemur  -12.76242733 -23.98927307 -18.97900009
ltibia  3.63705349 2.542020559 14.62565613
lfoot  0.8188554645 -29.90873909 28.5714817
ltoes  -8.498161097 -18.17203002 -115.5991899
122
root  34.98706667 36.47106501 -14.73599532 12.22602367 14.15518761 5.327532768
lowerback  -8.857190132 3.454529762 3.756740332
upperback  -4.36616993 3.973989964 -4.856659889
thorax  1.022969961 1.735800028 -6.800590038
lowerneck  -15.11979961 -5.850540161 -2.354530096
upperneck  10.92350006 -8.657910347 7.446889877
head  6.232190132 -3.797389984 1.879600167
lclavicle  0 -4.497500157e-015 -2.743230041e-014
lhumerus  -42.5868988 28.47139931 67.35389709
lradius  -0.1050185487 -6.507048965e-006 25.21410179
lwrist  4.824992743e-007 -3.790274832e-007 -36.2582016
lhand  -0 -36.84529877 -10.55770016
lfingers  90 7.125020027 -90
lthumb  94.76564136 -25.3976495 100.9998888
rclavicle  0 -4.497500157e-015 -2.743230041e-014
rhumerus  66.21900177 -11.20060062 -58.35929871
rradius  -5.16745672e-007 2.214343908e-008 40.79130173
rwrist  1.380293725e-006 2.528095422e-007 -153.7689972
rhand  -1.771433873e-031 4.666210175 -5.528580189
rfingers  -90 -7.125020027 -90
rthumb  -83.97920484 -10.27595217 -59.4066407
rfemur  -14.63285446 10.05690384 14.43122005
rtibia  -3.635098934 2.189245224 24.83142662
rfoot  -3.189461231 -13.47522354 -45.83784485
rtoes  4.088435913 19.59443019 -102.0318813
lfemur  -12.79836941 -24.07255745 -18.98868179
ltibia  3.628582239 2.533149004 14.65266609
lfoot  0.8209453821 -29.90200233 28.54855919
ltoes  -8.502608511 -18.17000487 -115.6134511
123
root  34.98736104 36.47077365 -14.73745361 12.24584866 14.21934509 5.359725475
lowerback  -8.857769966 3.491219997 3.805510283
upperback  -4.358510017 4.020860195 -4.88022995
thorax  1.042899966 1.759909987 -6.848139763
lowerneck  -15.11779976 -5.909249783 -2.344959974
upperneck  10.91429996 -8.736410141 7.432579994
head  6.231729984 -3.836460114 1.865260005
lclavicle  0 -4.497500157e-015 -2.743230041e-014
lhumerus  -42.56779861 28.50359917 67.31079865
lradius  -0.1053736731 -6.507048965e-006 25.17670059
lwrist  4.824992743e-007 -3.790274832e-007 -36.22689819
lhand  -0 -36.83779907 -10.6086998
lfingers  90 7.125020027 -90
lthumb  94.77290516 -25.4479213 100.9965
rclavicle  0 -4.497500157e-015 -2.743230041e-014
rhumerus  66.62999725 -11.37189865 -58.67520142
rradius  -5.16745672e-007 2.214343908e-008 40.23220062
rwrist  1.380293725e-006 2.528095422e-007 -153.1660004
rhand  -1.771636887e-031 4.745969772 -5.534170151
rfingers  -90 -7.125020027 -90
rthumb  -83.96118872 -10.27509742 -59.32896236
rfemur  -14.63431358 9.859662056 14.4238987
rtibia  -3.650990009 2.099951267 24.83802605
rfoot  -3.196542025 -13.61810303 -45.74490738
rtoes  4.083322932 19.59545618 -102.0166354
lfemur  -12.8022604 -24.1087513 -19.00935173
ltibia  3.639938116 2.542747974 14.63059902
lfoot  0.8355351686 -29.9131813 28.54557991
ltoes  -8.512215241 -18.16562591 -115.6442615
124
root  34.98894999 36.47038617 -14.73806486 12.27616692 14.28904057 5.401871204
lowerback  -8.841779709 3.530420303 3.841380119
upperback  -4.35063982 4.072679996 -4.905590057
thorax  1.054069996 1.786520004 -6.890339851
lowerneck  -15.14850044 -5.985300064 -2.3910501
upperneck  10.94400024 -8.845840454 7.505420208
head  6.257599831 -3.885220051 1.882390022
lclavicle  0 -4.497500157e-015 -2.743230041e-014
lhumerus  -42.55530167 28.49819946 67.26360321
lradius  -0.1057154462 -6.507048965e-006 25.18329811
lwrist  4.824992743e-007 -3.790274832e-007 -36.24229813
lhand  -4.41623136e-031 -36.91009903 -10.67959976
lfingers  90 7.125020027 -90
lthumb  94.82177915 -25.51501397 101.0802528
rclavicle  0 -4.497500157e-015 -2.743230041e-014
rhumerus  66.95960236 -11.56550026 -58.95980072
rradius  -5.16745672e-007 2.214343908e-008 39.73860168
rwrist  1.380293725e-006 2.528095422e-007 -152.6600037
rhand  -1.771502993e-031 4.693520069 -5.419750214
rfingers  -90 -7.125020027 -90
rthumb  -83.91567908 -10.37096669 -59.36972204
rfemur  -14.6717577 9.790392876 14.40299225
rtibia  -3.680912733 2.074856043 24.8993969
rfoot  -3.232758045 -13.6278038 -45.74739838
rtoes  4.07987854 19.59614658 -102.0063654
lfemur  -12.83018589 -24.16889 -19.03717995
ltibia  3.645460367 2.537085772 14.62205029
lfoot  0.8273724318 -29.89226341 28.5016346
ltoes  -8.515622349 -18.16407139 -115.6551904
